<?xml version="1.0" encoding="UTF-8"?>
<svg version="1.1" xmlns="http://www.w3.org/2000/svg" width="950" height="950">
<path d="M0 0 C-0.1875 1.85717773 -0.1875 1.85717773 -1 4 C-3.125 5.22290039 -3.125 5.22290039 -6 6.28515625 C-11.12030085 8.26737923 -16.16597983 10.34161996 -21.1875 12.55859375 C-21.90317139 12.87317535 -22.61884277 13.18775696 -23.35620117 13.51187134 C-24.82861448 14.15927127 -26.30069845 14.80742072 -27.77246094 15.45629883 C-29.99542637 16.43548538 -32.22033015 17.41017241 -34.4453125 18.38476562 C-42.75146797 22.03630545 -50.91832662 25.86948617 -59 30 C-60.41515608 30.6996782 -61.83166896 31.39662417 -63.25 32.08984375 C-70.158079 35.4856137 -76.89449632 39.01777188 -83.50390625 42.97265625 C-87.18336298 45.141681 -90.9513611 47.14019072 -94.71508789 49.15820312 C-109.23186487 56.95491847 -123.31273863 65.30120921 -136.51171875 75.1953125 C-140.07523747 77.77984256 -143.81186881 80.06424971 -147.546875 82.390625 C-149.69373894 83.79907714 -151.62286729 85.26150668 -153.5625 86.9375 C-156 89 -156 89 -158 89 C-158 89.99 -158 90.98 -158 92 C-158.78310547 92.38478516 -158.78310547 92.38478516 -159.58203125 92.77734375 C-166.46419081 96.35703095 -172.10400256 100.99856769 -178 106 C-179.89218047 107.56692162 -181.78795948 109.12950895 -183.6875 110.6875 C-184.59113281 111.42871094 -185.49476563 112.16992188 -186.42578125 112.93359375 C-189.271765 115.2181543 -192.17817013 117.39587472 -195.1484375 119.515625 C-197.62331721 121.49970578 -199.76607922 123.74714769 -202 126 C-205.29035369 129.12390156 -208.61914239 132.2069812 -211.94140625 135.296875 C-215.84198521 138.93741536 -219.66967305 142.62889879 -223.40649414 146.43774414 C-225.06373368 148.06248381 -226.78875537 149.56656162 -228.5625 151.0625 C-237.12113217 158.45100668 -245.18988802 166.65272496 -252.49609375 175.27734375 C-254.09105998 177.10430507 -255.77017842 178.80059287 -257.5 180.5 C-260.51413582 183.46735323 -263.29917333 186.57345292 -266.05859375 189.77734375 C-268.28804061 192.32976883 -270.58001382 194.81887514 -272.875 197.3125 C-277.02245258 201.85524685 -280.93232695 206.54119962 -284.79296875 211.328125 C-286.91623338 213.8985905 -289.11811849 216.35919363 -291.375 218.8125 C-295.47074853 223.3006983 -299.19236074 228.01151678 -302.90258789 232.81640625 C-306.39209885 237.3065092 -310.12940618 241.49367281 -313.9921875 245.66796875 C-316.60934204 248.70773774 -318.72945995 251.9590537 -320.80859375 255.3828125 C-321.20175781 255.91648437 -321.59492187 256.45015625 -322 257 C-322.66 257 -323.32 257 -324 257 C-324.25652344 257.72832031 -324.51304687 258.45664062 -324.77734375 259.20703125 C-326.05605088 262.12803955 -327.55592481 264.22012466 -329.5625 266.6875 C-332.02472431 269.68776321 -332.02472431 269.68776321 -334 273 C-334.66 273 -335.32 273 -336 273 C-336.28875 273.763125 -336.5775 274.52625 -336.875 275.3125 C-338 278 -338 278 -340 281 C-340.66 281 -341.32 281 -342 281 C-342.24105469 281.70898438 -342.48210937 282.41796875 -342.73046875 283.1484375 C-344.19641903 286.44118735 -346.0498743 288.818011 -348.3125 291.625 C-353.18486863 297.78886153 -357.62864148 304.19554372 -362.03369141 310.69873047 C-366.11673094 316.7233385 -370.27566807 322.68692889 -374.51513672 328.60253906 C-383.11204707 340.67266383 -391.11967949 353.17538952 -399.25 365.5625 C-399.70432404 366.25454529 -400.15864807 366.94659058 -400.6267395 367.65960693 C-407.97082957 378.8521446 -415.21859971 390.10132455 -422.3671875 401.41992188 C-424.62939139 404.99452874 -426.90682007 408.55935014 -429.18310547 412.125 C-443.08022193 433.90862369 -456.6257276 455.89334074 -470 478 C-481.01763259 496.20207052 -492.05340998 514.387313 -504 532 C-504.86107607 533.29921482 -505.72172522 534.59871265 -506.58203125 535.8984375 C-511.59654574 543.40692927 -516.70059351 550.27069155 -523.00390625 556.765625 C-524.8179688 558.79623905 -525.94373348 560.51063674 -527 563 C-527.66 563 -528.32 563 -529 563 C-529 563.66 -529 564.32 -529 565 C-532.13693567 567.89877352 -535.60410405 570.41308599 -539 573 C-539.86496094 573.66773438 -540.72992187 574.33546875 -541.62109375 575.0234375 C-564.37582677 592.13175088 -589.66423593 599.63074513 -617.98046875 595.69921875 C-624.86130561 594.60398205 -631.45296941 592.42188142 -637.625 589.1875 C-638.800625 588.5996875 -638.800625 588.5996875 -640 588 C-640.66 588.33 -641.32 588.66 -642 589 C-642 588.01 -642 587.02 -642 586 C-642.721875 585.731875 -643.44375 585.46375 -644.1875 585.1875 C-646.99766383 584.00098638 -649.48416557 582.72514361 -652 581 C-652 580.34 -652 579.68 -652 579 C-652.7425 578.731875 -653.485 578.46375 -654.25 578.1875 C-656.90791524 577.03976387 -658.84640096 575.92285629 -661 574 C-661.33 573.01 -661.66 572.02 -662 571 C-662.66 571 -663.32 571 -664 571 C-664 570.34 -664 569.68 -664 569 C-664.66 569 -665.32 569 -666 569 C-666 568.34 -666 567.68 -666 567 C-666.5775 566.7525 -667.155 566.505 -667.75 566.25 C-671.48597363 564.17445909 -673.64391315 562.06826056 -675 558 C-675.99 558 -676.98 558 -678 558 C-678.37125 557.154375 -678.7425 556.30875 -679.125 555.4375 C-681.01970664 551.96387116 -683.12453016 549.39831778 -685.79296875 546.515625 C-687 545 -687 545 -687 543 C-687.66 543 -688.32 543 -689 543 C-689.66 541.35 -690.32 539.7 -691 538 C-691.66 538 -692.32 538 -693 538 C-697 532.58823529 -697 532.58823529 -697 530 C-697.66 530 -698.32 530 -699 530 C-699 529.01 -699 528.02 -699 527 C-699.66 527 -700.32 527 -701 527 C-702.22998047 525.52563477 -702.22998047 525.52563477 -703.6171875 523.44140625 C-704.13531006 522.6719165 -704.65343262 521.90242676 -705.18725586 521.10961914 C-705.74421143 520.26906982 -706.30116699 519.42852051 -706.875 518.5625 C-708.06011266 516.80135256 -709.24633236 515.04094962 -710.43359375 513.28125 C-711.03284668 512.39050781 -711.63209961 511.49976563 -712.24951172 510.58203125 C-714.76342685 506.87391878 -717.34299535 503.214495 -719.9375 499.5625 C-723.08203782 495.13429728 -726.21472557 490.69971134 -729.30078125 486.23046875 C-759.76174316 438.51375322 -759.76174316 438.51375322 -806.609375 410.3359375 C-812.36740067 409.52680317 -818.19635282 409.28715963 -824 409 C-824.61328125 406.67578125 -824.61328125 406.67578125 -825 404 C-823.1875 401.1875 -823.1875 401.1875 -821 399 C-820.34 399 -819.68 399 -819 399 C-819 398.34 -819 397.68 -819 397 C-818.34 397 -817.68 397 -817 397 C-816.67 396.01 -816.34 395.02 -816 394 C-814.2578125 392.28125 -814.2578125 392.28125 -812.125 390.5 C-809.14615469 387.99734679 -809.14615469 387.99734679 -806.3671875 385.28125 C-805 384 -805 384 -803 384 C-803 383.34 -803 382.68 -803 382 C-798.86816334 379.03176658 -794.40113474 376.54779033 -790 374 C-789.07815918 373.46004395 -789.07815918 373.46004395 -788.13769531 372.90917969 C-775.05720148 365.31516874 -763.58618216 361.68786074 -748.375 361.5625 C-747.33811035 361.5521875 -746.3012207 361.541875 -745.23291016 361.53125 C-735.39336549 361.64339931 -725.97075451 363.18215803 -717.5625 368.5 C-716.61503906 369.0878125 -715.66757812 369.675625 -714.69140625 370.28125 C-713.35916016 371.13203125 -713.35916016 371.13203125 -712 372 C-711.15953125 372.49371094 -710.3190625 372.98742187 -709.453125 373.49609375 C-706.90833641 375.05619504 -704.55458142 376.74498972 -702.1875 378.5625 C-701.39730469 379.16191406 -700.60710937 379.76132812 -699.79296875 380.37890625 C-699.20128906 380.91386719 -698.60960937 381.44882812 -698 382 C-698 382.66 -698 383.32 -698 384 C-697.195625 384.309375 -697.195625 384.309375 -696.375 384.625 C-693.08021991 386.53250426 -690.40636372 389.04819384 -688 392 C-688 392.66 -688 393.32 -688 394 C-687.34 394 -686.68 394 -686 394 C-681 399.47619048 -681 399.47619048 -681 402 C-680.34 402 -679.68 402 -679 402 C-677.58984375 403.58203125 -677.58984375 403.58203125 -675.9375 405.8125 C-669.92790198 413.75508213 -663.54392894 421.38685173 -657.125 429 C-656.66061523 429.55204102 -656.19623047 430.10408203 -655.71777344 430.67285156 C-653.93578978 432.7781212 -652.16934653 434.83719475 -650.1796875 436.75 C-649 438 -649 438 -649 440 C-648.34 440 -647.68 440 -647 440 C-647 440.66 -647 441.32 -647 442 C-646.01 442.33 -645.02 442.66 -644 443 C-642.84048839 444.12540833 -641.68602703 445.25651972 -640.55859375 446.4140625 C-631.03510432 456.10463069 -619.84184503 463.88241891 -605.8125 464.25 C-602.2297413 464.27256856 -600.14131534 463.66982343 -597 462 C-594.67284 461.62599214 -592.33882138 461.29235267 -590 461 C-588.66082739 460.69096017 -587.32346746 460.37057089 -586 460 C-586 459.34 -586 458.68 -586 458 C-585.01 457.649375 -584.02 457.29875 -583 456.9375 C-578.1979208 454.88499841 -574.79610789 451.50294312 -571 448 C-569.81573032 447.01692882 -568.62836534 446.03757095 -567.4375 445.0625 C-547.24471614 427.68309276 -532.39669474 401.51039893 -517.375 379.75 C-514.2432264 375.2451828 -510.88791431 370.92381167 -507.46240234 366.63964844 C-504.81123564 363.26850286 -502.79458917 359.89216092 -501 356 C-500.34 356 -499.68 356 -499 356 C-498.91105469 355.44699219 -498.82210938 354.89398437 -498.73046875 354.32421875 C-497.78526545 351.31675369 -496.21468293 349.32338147 -494.3125 346.8125 C-491.72511123 343.34881201 -489.22261515 339.8803969 -486.875 336.25 C-485.12009405 333.57764993 -483.31828991 331.13181447 -481.1875 328.75 C-475.81697939 322.70994499 -471.47595636 315.71393453 -467 309 C-466.34 309 -465.68 309 -465 309 C-464.72671875 308.41734375 -464.4534375 307.8346875 -464.171875 307.234375 C-463.02299893 305.0438513 -461.7554113 303.20865341 -460.25 301.25 C-459.71632813 300.55003906 -459.18265625 299.85007812 -458.6328125 299.12890625 C-458.09398437 298.42636719 -457.55515625 297.72382813 -457 297 C-456.03960634 295.73072298 -455.08125692 294.4598965 -454.125 293.1875 C-453.62871094 292.5275 -453.13242187 291.8675 -452.62109375 291.1875 C-450.78259564 288.70663508 -448.98731813 286.1965534 -447.1875 283.6875 C-440.73418272 274.80656431 -433.60038837 266.51060553 -426.44677734 258.19433594 C-420.93771061 251.78142423 -415.49219946 245.32076525 -410.3984375 238.5703125 C-409.95709473 237.98709229 -409.51575195 237.40387207 -409.06103516 236.80297852 C-408.21348856 235.67780911 -407.37159875 234.54834635 -406.53662109 233.41381836 C-404.63155365 230.87939123 -402.81534075 228.85286653 -400.328125 226.87109375 C-397.94407597 224.95505434 -397.2564005 223.70399238 -396 221 C-394.4765625 219.53515625 -394.4765625 219.53515625 -392.625 218.0625 C-388.71860858 214.75709188 -385.2219067 211.1862453 -381.75 207.4375 C-381.24291504 206.89552979 -380.73583008 206.35355957 -380.21337891 205.79516602 C-377.09205953 202.39407173 -374.54954081 198.86010391 -372 195 C-370.36345179 193.62986661 -368.70196405 192.2879728 -367 191 C-366.67 190.34 -366.34 189.68 -366 189 C-365.34 189 -364.68 189 -364 189 C-364 188.34 -364 187.68 -364 187 C-362.56640625 185.58984375 -362.56640625 185.58984375 -360.5625 183.9375 C-357.39242783 181.24825006 -354.41418475 178.46486623 -351.5 175.5 C-346.69437227 170.63637331 -341.67575968 166.11571695 -336.3125 161.875 C-333.91700971 160.00755357 -333.91700971 160.00755357 -331.6875 157.625 C-322.85714286 149 -322.85714286 149 -319 149 C-318.773125 148.443125 -318.54625 147.88625 -318.3125 147.3125 C-316.62449964 144.33840412 -314.53323483 142.27991135 -312 140 C-311.34 140 -310.68 140 -310 140 C-309.67 139.34 -309.34 138.68 -309 138 C-307 136.66666667 -305 135.33333333 -303 134 C-302.67 133.34 -302.34 132.68 -302 132 C-301.34 132 -300.68 132 -300 132 C-300 131.34 -300 130.68 -300 130 C-299.34 130 -298.68 130 -298 130 C-298 129.34 -298 128.68 -298 128 C-296.33720673 126.9935725 -294.67016516 125.99414593 -293 125 C-292.34 124.01 -291.68 123.02 -291 122 C-290.01 122 -289.02 122 -288 122 C-288 121.34 -288 120.68 -288 120 C-286.671875 118.80859375 -286.671875 118.80859375 -284.75 117.4375 C-279.94361942 113.96622514 -275.24286529 110.36604603 -270.5390625 106.7578125 C-268 105 -268 105 -266 105 C-266 104.34 -266 103.68 -266 103 C-263.78512269 101.30172117 -261.56852029 99.73426909 -259.25 98.1875 C-258.53481201 97.70394043 -257.81962402 97.22038086 -257.08276367 96.72216797 C-254.72867209 95.13761035 -252.36600944 93.56670124 -250 92 C-249.21383301 91.47905762 -248.42766602 90.95811523 -247.61767578 90.42138672 C-238.10479517 84.13958849 -228.49676233 78.01401046 -218.8125 72 C-217.96405518 71.47229004 -217.11561035 70.94458008 -216.24145508 70.40087891 C-211.55918791 67.51059053 -206.82720345 64.7545547 -202.00317383 62.10791016 C-199.44529893 60.69320738 -196.94316361 59.19239185 -194.4375 57.6875 C-183.8601476 51.50732325 -172.85767124 46.27462661 -161.60766602 41.44677734 C-156.95218592 39.44368277 -152.41403617 37.28233894 -147.91796875 34.9453125 C-146 34 -146 34 -143 33 C-142.67 32.34 -142.34 31.68 -142 31 C-140.28515625 30.54296875 -140.28515625 30.54296875 -138.0625 30.1875 C-134.55457564 29.4837329 -131.86007859 28.50397225 -128.75 26.75 C-122.6877906 23.51299087 -116.17948469 21.90831128 -109.57519531 20.14355469 C-105.67892589 19.09373053 -101.92834248 18.05686162 -98.25 16.3828125 C-94.96263237 14.98410079 -92.22066843 14.42239623 -88.6875 14 C-83.6508032 13.31186347 -79.04185115 12.22092014 -74.21484375 10.65625 C-71.18910303 9.75973423 -68.12140143 9.42842765 -65 9 C-63.31923769 8.36971413 -61.65204456 7.70211894 -60 7 C-55.13281504 5.37760501 -50.58791487 4.7101589 -45.515625 4.27734375 C-43.22538933 4.02484882 -41.1089179 3.61245307 -38.875 3.0625 C-25.97512643 0.0578009 -13.16911649 -0.27435659 0 0 Z " fill="#0C5164" transform="translate(894,199)"/>
<path d="M0 0 C4.75 0.75 4.75 0.75 7 3 C9.82446541 12.90306392 6.96825523 24.1603757 4.6875 33.9375 C4.48688965 34.81277344 4.2862793 35.68804687 4.07958984 36.58984375 C2.70686934 42.17004297 0.75383489 46.96949682 -2 52 C-2.50402344 53.00546875 -3.00804687 54.0109375 -3.52734375 55.046875 C-6.17597014 60.12402032 -8.26237193 63.64899478 -13 67 C-14.19259087 68.28898967 -15.35696418 69.60436967 -16.5 70.9375 C-23.98802265 79.66267422 -23.98802265 79.66267422 -28 81 C-28.27457031 81.61746094 -28.54914063 82.23492187 -28.83203125 82.87109375 C-30.49873592 85.90906714 -32.58501877 86.60273781 -35.6875 88.0625 C-36.70199219 88.54847656 -37.71648437 89.03445313 -38.76171875 89.53515625 C-55.74125356 97.21588671 -73.10307553 104.13070123 -90.43896484 110.9609375 C-93.106325 112.01265927 -95.77191199 113.06879606 -98.4375 114.125 C-99.26668945 114.45000488 -100.09587891 114.77500977 -100.95019531 115.10986328 C-105.51820723 116.92214231 -109.90949475 118.911121 -114.2824707 121.15185547 C-116.2686439 122.13266083 -118.25447127 122.86300323 -120.375 123.5 C-126.38565598 125.41108036 -132.17758925 127.80675566 -137.984375 130.26171875 C-142.49364151 132.16728442 -146.94955591 134.04046984 -151.625 135.5 C-154.79056261 136.51004582 -157.61981175 137.77015923 -160.5625 139.3125 C-165.64123631 141.95121746 -170.88363726 143.88097821 -176.24951172 145.83691406 C-180.31296976 147.3304782 -184.13952241 148.97054735 -187.953125 151.00390625 C-191.79826415 152.87510946 -195.84248456 154.27524675 -199.83984375 155.78515625 C-205.01130029 157.77319455 -210.02092704 160.05526789 -215.01953125 162.44140625 C-221.35622964 165.44062649 -227.61245643 167.95146062 -234.29296875 170.0703125 C-237.37497561 171.1287795 -240.14836678 172.47427611 -243.01171875 174.015625 C-245.26743569 175.13240431 -247.56265656 175.9182576 -249.9375 176.75 C-257.12180429 179.58387041 -262.95487145 184.38802229 -266.5 191.3125 C-268.34885283 195.85759655 -269.10720639 198.93695227 -269.0703125 203.8046875 C-269.080625 204.94550781 -269.0909375 206.08632813 -269.1015625 207.26171875 C-269.11713658 209.66272262 -269.10947451 212.06399404 -269.078125 214.46484375 C-269.21251899 222.97966316 -269.21251899 222.97966316 -271.41845703 225.83789062 C-273.22474012 227.16431027 -274.95006977 228.10225538 -277 229 C-278.41152344 229.73476563 -278.41152344 229.73476563 -279.8515625 230.484375 C-281.22441406 231.11085938 -281.22441406 231.11085938 -282.625 231.75 C-306.09344549 243.27989548 -322.57463098 262.4135661 -335 285 C-335.33 285.99 -335.66 286.98 -336 288 C-337.65 287.67 -339.3 287.34 -341 287 C-341.96549832 277.10593021 -342.09157714 267.31853724 -341.94921875 257.39453125 C-341.9299075 255.81955773 -341.91085481 254.24458102 -341.89204407 252.66960144 C-341.85136571 249.38603151 -341.80621651 246.10256017 -341.75805664 242.8190918 C-341.69768433 238.66576012 -341.6505939 234.51240054 -341.60722637 230.35886097 C-341.57140076 227.10943785 -341.52723601 223.8601644 -341.48087502 220.61087608 C-341.46020807 219.08231747 -341.44220317 217.55371989 -341.4272213 216.02509499 C-341.16838399 190.85467474 -338.49666093 165.28643438 -322 145 C-321.34 145 -320.68 145 -320 145 C-319.79632813 144.45859375 -319.59265625 143.9171875 -319.3828125 143.359375 C-312.93194406 132.35280851 -299.25495007 125.86523964 -288 121 C-286.48792969 120.34402832 -286.48792969 120.34402832 -284.9453125 119.67480469 C-276.29777793 115.94364786 -267.60653957 112.32061832 -258.90454102 108.71875 C-253.29007344 106.38949188 -247.70203692 104.01165212 -242.13842773 101.56347656 C-231.32312449 96.80446941 -220.42654761 92.27441293 -209.47045898 87.84985352 C-202.39468585 84.98993938 -195.37044256 82.04735746 -188.40625 78.92578125 C-186 78 -186 78 -183 78 C-182.67 77.01 -182.34 76.02 -182 75 C-181.21625 74.9175 -180.4325 74.835 -179.625 74.75 C-175.54344253 73.90553983 -171.99571704 72.46787347 -168.171875 70.83984375 C-166 70 -166 70 -164 70 C-164 69.34 -164 68.68 -164 68 C-163.34169189 67.90178955 -162.68338379 67.8035791 -162.00512695 67.70239258 C-158.11415426 66.79295002 -154.59340956 65.31061773 -150.91796875 63.76171875 C-150.14495926 63.43967972 -149.37194977 63.11764069 -148.57551575 62.7858429 C-146.9432201 62.10463358 -145.31186442 61.42116811 -143.68139648 60.7355957 C-141.20853582 59.6963406 -138.73249304 58.664992 -136.25585938 57.63476562 C-134.66386605 56.96921972 -133.07206297 56.30321852 -131.48046875 55.63671875 C-130.74998825 55.33239426 -130.01950775 55.02806976 -129.26689148 54.71452332 C-125.01627926 52.92262687 -120.87834302 50.9883651 -116.7772522 48.8757019 C-113.99331252 47.5039769 -111.1072762 46.48285197 -108.1875 45.4375 C-99.54944834 42.28038174 -91.05257422 38.79449381 -82.54321289 35.30810547 C-74.91939345 32.1859549 -67.2800931 29.10707642 -59.625 26.0625 C-50.94215893 22.60023542 -42.2794838 19.09045774 -33.63739014 15.52780151 C-31.81964246 14.77869995 -30.0009048 14.03200204 -28.18212891 13.28540039 C-21.3087994 10.44252278 -14.55060025 7.43566184 -7.84863281 4.20800781 C-5.2015502 3.08547055 -2.8314911 2.44051192 0 2 C0 1.34 0 0.68 0 0 Z " fill="#126975" transform="translate(596,198)"/>
<path d="M0 0 C-0.52442393 4.2054765 -3.08128319 6.84842173 -5.75 9.9375 C-6.39582031 10.70610352 -6.39582031 10.70610352 -7.0546875 11.49023438 C-10.60937548 15.67816767 -14.46231325 19.50000165 -18.390625 23.33203125 C-21.65255058 26.66720367 -24.70241171 30.15709155 -27.75 33.6875 C-28.33910156 34.36361328 -28.92820312 35.03972656 -29.53515625 35.73632812 C-30.09589844 36.38408203 -30.65664063 37.03183594 -31.234375 37.69921875 C-31.74194336 38.28533936 -32.24951172 38.87145996 -32.77246094 39.4753418 C-34.08781959 40.9984929 -34.08781959 40.9984929 -35 43 C-35.66 43 -36.32 43 -37 43 C-37.2165625 43.5259375 -37.433125 44.051875 -37.65625 44.59375 C-39.51598402 47.92397139 -41.99380415 50.64961731 -44.5 53.5 C-45.59305397 54.75989112 -46.6854927 56.02031626 -47.77734375 57.28125 C-48.32245605 57.90902344 -48.86756836 58.53679687 -49.42919922 59.18359375 C-55.34042985 66.01908581 -61.05064715 73.01309321 -66.625 80.125 C-67.08390625 80.71039551 -67.5428125 81.29579102 -68.015625 81.89892578 C-70.15288407 84.62944266 -72.28232559 87.36541653 -74.40234375 90.109375 C-75.11519531 91.02203125 -75.82804688 91.9346875 -76.5625 92.875 C-77.18253906 93.67679687 -77.80257812 94.47859375 -78.44140625 95.3046875 C-78.95574219 95.86414063 -79.47007812 96.42359375 -80 97 C-80.66 97 -81.32 97 -82 97 C-82.33 97.99 -82.66 98.98 -83 100 C-87.21460217 103.94133619 -92.10927794 106.76676369 -97.3359375 109.140625 C-99.19812863 109.99558707 -99.19812863 109.99558707 -101 112 C-102.99656203 112.35334285 -104.99717236 112.68410043 -107 113 C-108.82611148 113.64544451 -110.63181265 114.35117501 -112.4140625 115.109375 C-113.42339844 115.53476562 -114.43273437 115.96015625 -115.47265625 116.3984375 C-116.51292969 116.84445312 -117.55320312 117.29046875 -118.625 117.75 C-120.6796875 118.61979167 -122.734375 119.48958333 -124.7890625 120.359375 C-125.8107251 120.79499756 -126.8323877 121.23062012 -127.88500977 121.67944336 C-131.02144768 123.00909244 -134.16775976 124.31284425 -137.31640625 125.61328125 C-152.76232919 132.04361236 -164.76005521 138.0027084 -172 154 C-175.65771425 163.2116491 -176.55172174 171.81153674 -176.45528984 181.58814049 C-176.43300712 183.94886937 -176.43724376 186.30834507 -176.44776917 188.66914368 C-176.46920581 194.52323303 -176.45211649 200.377025 -176.42626953 206.2310791 C-176.40475851 211.20371036 -176.40305195 216.17552336 -176.42918587 221.14814186 C-176.4334901 223.45613809 -176.4090543 225.76265069 -176.38365173 228.07048035 C-176.37259279 240.13298203 -179.57090555 248.18518904 -187.8984375 257.02734375 C-196.24741579 264.86420999 -205.81397907 267.52783539 -217.0625 267.1875 C-217.92810547 267.17396484 -218.79371094 267.16042969 -219.68554688 267.14648438 C-221.79064174 267.1115933 -223.89540974 267.05780665 -226 267 C-226 266.34 -226 265.68 -226 265 C-226.73476563 264.88398437 -227.46953125 264.76796875 -228.2265625 264.6484375 C-234.88992942 263.09052354 -239.91219628 258.71598704 -243.9375 253.3125 C-246.65471734 248.4937936 -247.6997647 244.06837107 -248.203125 238.62109375 C-248.28314255 237.80171326 -248.3631601 236.98233276 -248.44560242 236.13812256 C-249.28752022 226.39431504 -249.13219984 216.662611 -248.88842773 206.89501953 C-248.81291811 203.76731844 -248.76362985 200.63996563 -248.71679688 197.51171875 C-248.3524141 178.55638185 -247.93801682 157.52978715 -240 140 C-239.566875 138.6078125 -239.566875 138.6078125 -239.125 137.1875 C-237.50029051 132.58415645 -235.24180799 128.32959863 -233 124 C-232.34 124 -231.68 124 -231 124 C-230.89300781 123.45214844 -230.78601563 122.90429688 -230.67578125 122.33984375 C-227.67419817 111.94707922 -219.7568072 103.9246236 -212.38232422 96.41748047 C-211.21262847 95.21803619 -210.07339575 93.98899916 -208.94140625 92.75390625 C-192.6633784 75.35567003 -169.3089622 67.09843333 -147.63671875 58.6171875 C-140.28073955 55.73523462 -132.98329035 52.71769858 -125.6875 49.6875 C-124.5020459 49.19580322 -123.3165918 48.70410645 -122.09521484 48.19750977 C-119.81762148 47.25196927 -117.54042975 46.30546066 -115.26367188 45.35791016 C-113.130335 44.47029647 -110.99625025 43.58447758 -108.86132812 42.70068359 C-102.24836134 39.95874769 -95.67951928 37.12842742 -89.125 34.25 C-80.62873994 30.53691202 -72.08990853 26.95312537 -63.49609375 23.47241211 C-56.17092432 20.49917071 -48.89634895 17.41471863 -41.625 14.3125 C-33.22818351 10.73457644 -24.81095203 7.32906217 -16.23046875 4.21875 C-12.64392136 2.8656632 -9.21041977 1.30731408 -5.796875 -0.43359375 C-3.53767896 -1.14573163 -2.21097503 -0.74840527 0 0 Z " fill="#0C4D60" transform="translate(503,371)"/>
<path d="M0 0 C-7.76930707 2.65762323 -15.54014454 5.18946102 -23.4375 7.4375 C-30.07017461 9.32906033 -36.50122924 11.5767269 -42.91186523 14.12084961 C-45.7773752 15.24480366 -47.88910846 16 -51 16 C-51 15.34 -51 14.68 -51 14 C-49.02 13.34 -47.04 12.68 -45 12 C-45 10.68 -45 9.36 -45 8 C-34.97042735 4.94479934 -24.95512444 2.45032455 -14.625 0.625 C-13.13697876 0.35574707 -13.13697876 0.35574707 -11.61889648 0.08105469 C-10.21812866 -0.15629395 -10.21812866 -0.15629395 -8.7890625 -0.3984375 C-7.96100098 -0.53942871 -7.13293945 -0.68041992 -6.27978516 -0.82568359 C-3.92791378 -1.00551184 -2.23611547 -0.70685132 0 0 Z " fill="#268089" transform="translate(871,206)"/>
<path d="M0 0 C0.66 0.33 1.32 0.66 2 1 C2 1.66 2 2.32 2 3 C1.18378174 3.42297363 1.18378174 3.42297363 0.35107422 3.85449219 C-2.14282028 5.14942954 -4.63391439 6.44966792 -7.125 7.75 C-7.9809375 8.1934375 -8.836875 8.636875 -9.71875 9.09375 C-13.42253468 11.0311143 -17.04783041 12.95371713 -20.4921875 15.328125 C-23 17 -23 17 -25 17 C-25 17.66 -25 18.32 -25 19 C-25.78503906 19.37511719 -26.57007813 19.75023437 -27.37890625 20.13671875 C-33.31858146 23.03003293 -38.76977966 25.9584661 -44 30 C-44 27 -44 27 -42 25 C-41.01 25 -40.02 25 -39 25 C-38.814375 24.401875 -38.62875 23.80375 -38.4375 23.1875 C-36.34845544 20.00851916 -33.43735037 19.47315016 -30 18 C-29.30251417 16.68252676 -28.63040043 15.35085807 -28 14 C-27.27039063 13.855625 -26.54078125 13.71125 -25.7890625 13.5625 C-22.59382653 12.91808266 -20.33325483 11.72467478 -17.5 10.125 C-16.5821875 9.61195313 -15.664375 9.09890625 -14.71875 8.5703125 C-12.92699793 7.53542122 -11.15138169 6.4719991 -9.39453125 5.37890625 C-6.3855073 3.64614042 -3.35174135 2.85436544 0 2 C0 1.34 0 0.68 0 0 Z " fill="#237F8B" transform="translate(757,246)"/>
<path d="M0 0 C0.66 0.33 1.32 0.66 2 1 C-1.4576289 6.23883167 -5.07091854 10.12207712 -10 14 C-9.34 15.32 -8.68 16.64 -8 18 C-8.99 18.66 -9.98 19.32 -11 20 C-11.99 19.34 -12.98 18.68 -14 18 C-14.103125 18.556875 -14.20625 19.11375 -14.3125 19.6875 C-15.16490012 22.55466405 -16.19071306 24.60915654 -18 27 C-20.4375 27.625 -20.4375 27.625 -23 28 C-25.26454073 29.46771271 -25.26454073 29.46771271 -27 31 C-26 29 -25 27 -24 25 C-23.34 25 -22.68 25 -22 25 C-21.75378906 24.42709229 -21.50757813 23.85418457 -21.25390625 23.26391602 C-19.79385813 20.62781277 -18.09233374 18.8825346 -15.9375 16.77734375 C-15.14085937 15.99166016 -14.34421875 15.20597656 -13.5234375 14.39648438 C-12.69070313 13.58501953 -11.85796875 12.77355469 -11 11.9375 C-9.35194238 10.32388321 -7.70601136 8.70809078 -6.0625 7.08984375 C-5.33160156 6.37691162 -4.60070312 5.66397949 -3.84765625 4.92944336 C-1.83135467 2.93644442 -1.83135467 2.93644442 0 0 Z " fill="#167279" transform="translate(534,391)"/>
<path d="M0 0 C1.32 0.66 2.64 1.32 4 2 C2.71372289 3.17260611 1.42080217 4.3379283 0.125 5.5 C-0.59429688 6.1496875 -1.31359375 6.799375 -2.0546875 7.46875 C-4 9 -4 9 -6 9 C-6 9.66 -6 10.32 -6 11 C-7.3984375 12.41015625 -7.3984375 12.41015625 -9.375 14.0625 C-12.62941067 16.82817409 -15.83413833 19.63308192 -19 22.5 C-19.83660156 23.25023437 -20.67320312 24.00046875 -21.53515625 24.7734375 C-23.13940708 26.22260228 -24.731343 27.68555672 -26.30859375 29.1640625 C-27.36240234 30.13472656 -27.36240234 30.13472656 -28.4375 31.125 C-29.05496094 31.70507812 -29.67242188 32.28515625 -30.30859375 32.8828125 C-30.86675781 33.25148438 -31.42492187 33.62015625 -32 34 C-32.99 33.67 -33.98 33.34 -35 33 C-33.35 32.34 -31.7 31.68 -30 31 C-30 30.34 -30 29.68 -30 29 C-29.34 29 -28.68 29 -28 29 C-27.34 27.68 -26.68 26.36 -26 25 C-25.34 25 -24.68 25 -24 25 C-24 24.34 -24 23.68 -24 23 C-23.34 23 -22.68 23 -22 23 C-21.67 22.01 -21.34 21.02 -21 20 C-19.109375 18.38671875 -19.109375 18.38671875 -16.75 16.6875 C-13.84717968 14.51729624 -11.36565087 12.4773623 -9.125 9.625 C-7 7 -7 7 -4 6 C-3.67 5.01 -3.34 4.02 -3 3 C-1.4375 1.3125 -1.4375 1.3125 0 0 Z " fill="#1D7883" transform="translate(642,324)"/>
<path d="M0 0 C0 3 0 3 -1.87109375 4.91015625 C-2.71800781 5.62042969 -3.56492187 6.33070313 -4.4375 7.0625 C-18.21562312 19.1670093 -27.66685906 33.66772483 -31 52 C-31.33 52 -31.66 52 -32 52 C-31.51007741 45.68061871 -30.42539621 40.50349401 -27.9375 34.6875 C-27.63239502 33.96054932 -27.32729004 33.23359863 -27.01293945 32.48461914 C-24.12851239 25.85925711 -20.66184083 19.56205837 -16 14 C-15.34 14 -14.68 14 -14 14 C-13.79632813 13.44828125 -13.59265625 12.8965625 -13.3828125 12.328125 C-11.4709694 9.10931571 -8.76087536 7.05334367 -5.875 4.75 C-5.31167969 4.29109375 -4.74835938 3.8321875 -4.16796875 3.359375 C-2.78377401 2.23325047 -1.39256589 1.11575615 0 0 Z " fill="#0C363D" transform="translate(290,329)"/>
<path d="M0 0 C0.66 0.33 1.32 0.66 2 1 C1.18917969 1.73863281 0.37835938 2.47726562 -0.45703125 3.23828125 C-6.1562923 8.45056643 -11.81430691 13.70015283 -17.3125 19.125 C-18.66794922 20.45917969 -18.66794922 20.45917969 -20.05078125 21.8203125 C-22.22219986 23.76111827 -22.22219986 23.76111827 -22 26 C-20.87980469 26.04898438 -19.75960937 26.09796875 -18.60546875 26.1484375 C-17.13278797 26.22347856 -15.66013293 26.29902582 -14.1875 26.375 C-13.44951172 26.4059375 -12.71152344 26.436875 -11.95117188 26.46875 C-8.18106885 26.67346148 -6.20349259 26.86433827 -3 29 C-9.6 28.67 -16.2 28.34 -23 28 C-24 23 -24 23 -22.1875 20.1875 C-21.465625 19.465625 -20.74375 18.74375 -20 18 C-19.34 18 -18.68 18 -18 18 C-18 17.34 -18 16.68 -18 16 C-17.34 16 -16.68 16 -16 16 C-15.67 15.01 -15.34 14.02 -15 13 C-13.2578125 11.28125 -13.2578125 11.28125 -11.125 9.5 C-8.14615469 6.99734679 -8.14615469 6.99734679 -5.3671875 4.28125 C-4 3 -4 3 -2 3 C-2 2.34 -2 1.68 -2 1 C-1.34 0.67 -0.68 0.34 0 0 Z " fill="#08252F" transform="translate(93,580)"/>
<path d="M0 0 C0 0.66 0 1.32 0 2 C-3.11062338 4.16801023 -6.4098293 5.66254448 -9.90234375 7.11328125 C-12.51806312 8.21899503 -15.10177035 9.38842036 -17.6875 10.5625 C-18.59886719 10.97628906 -19.51023437 11.39007813 -20.44921875 11.81640625 C-22.9648434 12.94190044 -22.9648434 12.94190044 -25.14453125 14.21484375 C-27 15 -27 15 -30 14 C-28.68 13.67 -27.36 13.34 -26 13 C-26 12.34 -26 11.68 -26 11 C-25.24074219 10.60167969 -24.48148438 10.20335937 -23.69921875 9.79296875 C-22.70535156 9.26316406 -21.71148438 8.73335937 -20.6875 8.1875 C-19.70136719 7.66542969 -18.71523438 7.14335937 -17.69921875 6.60546875 C-15.02647116 5.1698268 -15.02647116 5.1698268 -13.328125 3.3046875 C-12 2 -12 2 -9.0625 1.9375 C-7.5465625 1.9684375 -7.5465625 1.9684375 -6 2 C-1.5 0 -1.5 0 0 0 Z " fill="#23808C" transform="translate(790,232)"/>
<path d="M0 0 C0.66 0.33 1.32 0.66 2 1 C0.8758824 2.29243468 -0.24932592 3.58392075 -1.375 4.875 C-2.00148438 5.59429687 -2.62796875 6.31359375 -3.2734375 7.0546875 C-5.10022357 9.11292158 -7.0237252 11.02298378 -9 12.9375 C-11.15272622 15.03299641 -11.15272622 15.03299641 -13 18 C-13.99 17.67 -14.98 17.34 -16 17 C-15.34 15.68 -14.68 14.36 -14 13 C-13.01 13 -12.02 13 -11 13 C-10.5978125 11.8553125 -10.5978125 11.8553125 -10.1875 10.6875 C-9.04865495 8.11011382 -8.18583329 6.73045136 -6 5 C-5.34 5 -4.68 5 -4 5 C-4 4.34 -4 3.68 -4 3 C-2 1.375 -2 1.375 0 0 Z M-18 18 C-18 20.66666667 -18 23.33333333 -18 26 C-19.65 25.67 -21.3 25.34 -23 25 C-23.33 25.99 -23.66 26.98 -24 28 C-23.58578031 23.16743695 -21.53586014 21.17320782 -18 18 Z " fill="#15787D" transform="translate(573,353)"/>
<path d="M0 0 C-3.2672246 2.17814973 -6.61503715 3.5254841 -10.25 4.9375 C-11.54722184 5.4457302 -12.84409865 5.95484194 -14.140625 6.46484375 C-15.09763306 6.83911499 -15.09763306 6.83911499 -16.07397461 7.22094727 C-18.0155964 8.00630855 -19.9211982 8.85379025 -21.83203125 9.7109375 C-25 11 -25 11 -27.4375 10.6875 C-27.953125 10.460625 -28.46875 10.23375 -29 10 C-24.85386202 7.37411262 -20.51361755 5.23593756 -16.109375 3.0859375 C-14.07003895 2.17171535 -14.07003895 2.17171535 -13 1 C-8.62311835 0.22760912 -4.44088235 -0.1083142 0 0 Z " fill="#227C88" transform="translate(820,222)"/>
<path d="M0 0 C0.66 0.33 1.32 0.66 2 1 C1.40832031 1.64066406 0.81664062 2.28132813 0.20703125 2.94140625 C-5.15909183 8.79567773 -5.15909183 8.79567773 -9.9375 15.125 C-10.618125 16.07375 -11.29875 17.0225 -12 18 C-12.66 18 -13.32 18 -14 18 C-14.99 20.475 -14.99 20.475 -16 23 C-16.66 23 -17.32 23 -18 23 C-18 23.66 -18 24.32 -18 25 C-18.66 25 -19.32 25 -20 25 C-19.40312566 21.65750371 -18.26396123 19.53563658 -16 17 C-15.34 17 -14.68 17 -14 17 C-13.731875 16.42765625 -13.46375 15.8553125 -13.1875 15.265625 C-11.95867364 12.92115366 -10.57477824 10.87595062 -9 8.75 C-8.484375 8.04359375 -7.96875 7.3371875 -7.4375 6.609375 C-6.963125 6.07828125 -6.48875 5.5471875 -6 5 C-5.34 5 -4.68 5 -4 5 C-4 4.34 -4 3.68 -4 3 C-3.34 3 -2.68 3 -2 3 C-2 2.34 -2 1.68 -2 1 C-1.34 0.67 -0.68 0.34 0 0 Z " fill="#1E7280" transform="translate(546,422)"/>
<path d="M0 0 C0.66 0.33 1.32 0.66 2 1 C1.38125 1.2475 0.7625 1.495 0.125 1.75 C-2.44249816 3.26029304 -2.71815729 4.36091208 -4 7 C-5.63990995 8.69300056 -7.31248799 10.35444271 -9 12 C-10.03924848 13.03627022 -11.07696317 14.0740805 -12.11328125 15.11328125 C-15.07552083 18.07552083 -18.03776042 21.03776042 -21 24 C-21.33 23.01 -21.66 22.02 -22 21 C-21.34 21 -20.68 21 -20 21 C-20 20.34 -20 19.68 -20 19 C-19.34 19 -18.68 19 -18 19 C-17.34 17.68 -16.68 16.36 -16 15 C-15.34 15 -14.68 15 -14 15 C-13.814375 14.29875 -13.62875 13.5975 -13.4375 12.875 C-11.73153913 9.46307825 -9.69556448 7.7804727 -6.75390625 5.4296875 C-4.97137315 4.02890042 -4.97137315 4.02890042 -3.40234375 2.3828125 C-2 1 -2 1 0 0 Z " fill="#207582" transform="translate(590,375)"/>
<path d="M0 0 C0.66 0 1.32 0 2 0 C2 1.65 2 3.3 2 5 C2.928125 4.34 3.85625 3.68 4.8125 3 C8 1 8 1 11 1 C9.70902709 4.87291872 8.19088359 5.40234904 4.75 7.5 C3.79609375 8.0878125 2.8421875 8.675625 1.859375 9.28125 C-3.859375 12.71875 -3.859375 12.71875 -6 14 C-6 13.01 -6 12.02 -6 11 C-5.34 11 -4.68 11 -4 11 C-4 10.34 -4 9.68 -4 9 C-2.68 8.67 -1.36 8.34 0 8 C0 5.36 0 2.72 0 0 Z " fill="#22828D" transform="translate(700,274)"/>
<path d="M0 0 C0.66 0.33 1.32 0.66 2 1 C1.484375 1.639375 0.96875 2.27875 0.4375 2.9375 C-0.93898932 4.6669353 -2.30752693 6.40299145 -3.6484375 8.16015625 C-6.88612948 12.39460493 -10.11324767 16.34880842 -14 20 C-13.60257417 17.21801919 -13.18783415 16.16965665 -11.0625 14.25 C-8.85599149 11.84289981 -8.64201269 10.9620195 -8.0625 7.875 C-7.62890625 5.765625 -7.62890625 5.765625 -7 4 C-4.5 2.625 -4.5 2.625 -2 2 C-1.34 1.34 -0.68 0.68 0 0 Z " fill="#1E6F7F" transform="translate(502,475)"/>
<path d="M0 0 C0 0.99 0 1.98 0 3 C-0.99 3.495 -0.99 3.495 -2 4 C-1.67 4.99 -1.34 5.98 -1 7 C-1.12109375 9.26171875 -1.12109375 9.26171875 -1.4375 11.6875 C-1.53933594 12.49574219 -1.64117187 13.30398438 -1.74609375 14.13671875 C-1.82988281 14.75160156 -1.91367187 15.36648438 -2 16 C-2.33 16 -2.66 16 -3 16 C-3.33 13.69 -3.66 11.38 -4 9 C-5.65 8.67 -7.3 8.34 -9 8 C-9 7.34 -9 6.68 -9 6 C-8.34 6 -7.68 6 -7 6 C-6.896875 5.38125 -6.79375 4.7625 -6.6875 4.125 C-5.52284543 0.52515862 -3.5849033 0 0 0 Z " fill="#0D5F6E" transform="translate(390,575)"/>
<path d="M0 0 C0.226875 0.639375 0.45375 1.27875 0.6875 1.9375 C1.82995545 4.21613466 1.82995545 4.21613466 4.3125 4.75 C6.89687028 4.99040654 9.40629862 5.07410575 12 5 C12.33 5.99 12.66 6.98 13 8 C11.37509046 8.02698189 9.75005367 8.04638757 8.125 8.0625 C7.22007813 8.07410156 6.31515625 8.08570313 5.3828125 8.09765625 C3 8 3 8 1 7 C-0.66619446 6.9603287 -2.33391013 6.95615553 -4 7 C-3.43628586 3.73045798 -2.50037734 2.17424117 0 0 Z " fill="#12445A" transform="translate(83,597)"/>
<path d="M0 0 C0.66 0 1.32 0 2 0 C2.33 1.32 2.66 2.64 3 4 C2.360625 4.103125 1.72125 4.20625 1.0625 4.3125 C0.381875 4.539375 -0.29875 4.76625 -1 5 C-1.33 5.99 -1.66 6.98 -2 8 C-2.66 8 -3.32 8 -4 8 C-4 8.66 -4 9.32 -4 10 C-4.99 10.66 -5.98 11.32 -7 12 C-7.25030977 14.58380177 -7.25030977 14.58380177 -7 17 C-8.65 17.33 -10.3 17.66 -12 18 C-11.44450219 13.87762151 -9.20334406 11.54313262 -6.5625 8.4375 C-4.22275057 5.66961022 -2.01124027 3.0168604 0 0 Z " fill="#156C75" transform="translate(470,462)"/>
<path d="M0 0 C1.32 0.33 2.64 0.66 4 1 C3.50628906 1.55429687 3.01257813 2.10859375 2.50390625 2.6796875 C1.54291016 3.76636719 1.54291016 3.76636719 0.5625 4.875 C-0.07558594 5.59429687 -0.71367188 6.31359375 -1.37109375 7.0546875 C-3.05014465 8.90750491 -3.05014465 8.90750491 -4 11 C-4.66 11 -5.32 11 -6 11 C-6.33 11.99 -6.66 12.98 -7 14 C-7.99 13.67 -8.98 13.34 -10 13 C-8.4373676 9.16444775 -5.93550032 6.86390275 -3 4 C-1.97186389 2.68824014 -0.95915568 1.3630107 0 0 Z " fill="#217281" transform="translate(514,458)"/>
<path d="M0 0 C1 2 1 2 1 6 C0.01 6 -0.98 6 -2 6 C-1.67 6.99 -1.34 7.98 -1 9 C-2.32 8.67 -3.64 8.34 -5 8 C-5.33 8.99 -5.66 9.98 -6 11 C-7.95597184 12.39712274 -9.95436401 13.73779907 -12 15 C-11.1875 13.0625 -11.1875 13.0625 -10 11 C-9.01 10.67 -8.02 10.34 -7 10 C-6.67 8.35 -6.34 6.7 -6 5 C-5.34 5 -4.68 5 -4 5 C-4 4.34 -4 3.68 -4 3 C-2 1.375 -2 1.375 0 0 Z " fill="#166F78" transform="translate(492,437)"/>
<path d="M0 0 C0.66 0.33 1.32 0.66 2 1 C1.401875 1.86625 0.80375 2.7325 0.1875 3.625 C-1.30557205 5.83832159 -2.40914023 7.86737729 -3.5625 10.3125 C-5 13 -5 13 -8 14 C-8 12.68 -8 11.36 -8 10 C-7.34 10 -6.68 10 -6 10 C-5.938125 9.278125 -5.87625 8.55625 -5.8125 7.8125 C-4.75543353 4.15342375 -2.79449929 2.50788398 0 0 Z " fill="#0F4259" transform="translate(485,565)"/>
<path d="M0 0 C0.99 0.33 1.98 0.66 3 1 C1.515 2.485 1.515 2.485 0 4 C-0.99 3.67 -1.98 3.34 -3 3 C-2.01 2.01 -1.02 1.02 0 0 Z M-6 3 C-5.01 3.33 -4.02 3.66 -3 4 C-3.4793247 8.31392226 -4.7457985 10.16569547 -8 13 C-9.06351675 9.61608307 -9.21442982 8.4195366 -7.5625 5.1875 C-7.046875 4.465625 -6.53125 3.74375 -6 3 Z " fill="#114056" transform="translate(568,449)"/>
<path d="M0 0 C-1.98 1.32 -3.96 2.64 -6 4 C-6 3.34 -6 2.68 -6 2 C-6.66 2 -7.32 2 -8 2 C-8 1.34 -8 0.68 -8 0 C-2.25 -1.125 -2.25 -1.125 0 0 Z M-8.25 2.875 C-7.13625 3.431875 -7.13625 3.431875 -6 4 C-6.66 5.32 -7.32 6.64 -8 8 C-8.66 8 -9.32 8 -10 8 C-10.33 7.34 -10.66 6.68 -11 6 C-12.32 6.33 -13.64 6.66 -15 7 C-15 6.01 -15 5.02 -15 4 C-12.27098495 2.18065663 -11.46400584 1.85236178 -8.25 2.875 Z " fill="#114557" transform="translate(664,345)"/>
<path d="M0 0 C0 0.66 0 1.32 0 2 C-0.66 2 -1.32 2 -2 2 C-2.268125 2.61875 -2.53625 3.2375 -2.8125 3.875 C-4 6 -4 6 -7 8 C-6.67 6.68 -6.34 5.36 -6 4 C-7.98 4 -9.96 4 -12 4 C-10.68 3.67 -9.36 3.34 -8 3 C-8 2.34 -8 1.68 -8 1 C-5.10765685 0.17361624 -3.11257569 0 0 0 Z " fill="#15626B" transform="translate(486,383)"/>
<path d="M0 0 C-7.40918359 3.28201479 -12.99142015 4.59824153 -21 3 C-21 2.67 -21 2.34 -21 2 C-18.25162151 1.46892686 -15.50187625 0.94984119 -12.75 0.4375 C-11.97269531 0.28603516 -11.19539062 0.13457031 -10.39453125 -0.02148438 C-9.64042969 -0.16005859 -8.88632812 -0.29863281 -8.109375 -0.44140625 C-7.07248535 -0.63778687 -7.07248535 -0.63778687 -6.01464844 -0.83813477 C-3.78712058 -1.01710362 -2.12493038 -0.65206197 0 0 Z " fill="#27747B" transform="translate(871,206)"/>
<path d="M0 0 C0 3 0 3 -2.046875 5.15625 C-3.38492187 6.31640625 -3.38492187 6.31640625 -4.75 7.5 C-5.63171875 8.2734375 -6.5134375 9.046875 -7.421875 9.84375 C-9.56945773 11.6399101 -11.7384527 13.35139542 -14 15 C-13.47523318 11.02422429 -11.68084705 9.48013031 -8.6875 6.9375 C-7.51767578 5.93009766 -7.51767578 5.93009766 -6.32421875 4.90234375 C-4.25451625 3.20831835 -2.15521183 1.58311898 0 0 Z " fill="#0F3D44" transform="translate(290,329)"/>
<path d="M0 0 C0.66 0.33 1.32 0.66 2 1 C-3.75 6 -3.75 6 -6 6 C-6 6.99 -6 7.98 -6 9 C-8.97 10.32 -11.94 11.64 -15 13 C-15 12.34 -15 11.68 -15 11 C-13.948125 10.443125 -12.89625 9.88625 -11.8125 9.3125 C-8.31683049 7.32808963 -5.77019836 4.92409827 -3 2 C-2.01 1.34 -1.02 0.68 0 0 Z " fill="#031A1D" transform="translate(742,282)"/>
<path d="M0 0 C-1.41694415 3.42428171 -2.93435446 4.95623631 -6 7 C-7.0725 7.721875 -8.145 8.44375 -9.25 9.1875 C-10.61125 10.0846875 -10.61125 10.0846875 -12 11 C-10.5611898 7.612801 -8.77880501 5.6405896 -6 3.25 C-5.29875 2.63640625 -4.5975 2.0228125 -3.875 1.390625 C-2 0 -2 0 0 0 Z " fill="#064B5E" transform="translate(612,358)"/>
<path d="M0 0 C0.66 0.33 1.32 0.66 2 1 C1.35455571 4.48539917 -0.10134397 7.02819057 -2 10 C-2.66 9.01 -3.32 8.02 -4 7 C-3.25 3.875 -3.25 3.875 -2 1 C-1.34 0.67 -0.68 0.34 0 0 Z " fill="#094559" transform="translate(396,705)"/>
<path d="M0 0 C0.66 0.33 1.32 0.66 2 1 C0.75160501 2.105981 -0.49879234 3.20970201 -1.75 4.3125 C-2.44609375 4.92738281 -3.1421875 5.54226563 -3.859375 6.17578125 C-5.85114506 7.87314734 -7.88898915 9.45477809 -10 11 C-10.66 10.67 -11.32 10.34 -12 10 C-8.29909479 6.0747975 -4.45040344 3.05419844 0 0 Z " fill="#207987" transform="translate(672,302)"/>
<path d="M0 0 C1.32 0.33 2.64 0.66 4 1 C4 5.38968456 1.87194899 6.76905739 -1 10 C-1.33 9.01 -1.66 8.02 -2 7 C-1.67 6.34 -1.34 5.68 -1 5 C-0.34 5 0.32 5 1 5 C0.67 3.35 0.34 1.7 0 0 Z " fill="#1E7381" transform="translate(521,446)"/>
<path d="M0 0 C-1 3 -1 3 -2.84765625 4.16796875 C-3.57855469 4.50441406 -4.30945313 4.84085937 -5.0625 5.1875 C-5.79597656 5.53167969 -6.52945313 5.87585938 -7.28515625 6.23046875 C-8.13400391 6.61138672 -8.13400391 6.61138672 -9 7 C-9 6.01 -9 5.02 -9 4 C-5.7309841 0.8217901 -4.67834007 0 0 0 Z " fill="#1E7B85" transform="translate(711,275)"/>
<path d="M0 0 C0.66 1.32 1.32 2.64 2 4 C0.02 4.99 0.02 4.99 -2 6 C-1.01 6.33 -0.02 6.66 1 7 C-0.65 7 -2.3 7 -4 7 C-3.43628586 3.73045798 -2.50037734 2.17424117 0 0 Z " fill="#0B4052" transform="translate(83,597)"/>
<path d="M0 0 C0.99 0.33 1.98 0.66 3 1 C1.71480435 3.86697492 0.42870746 5.97607712 -2 8 C-2.66 8 -3.32 8 -4 8 C-2.66666667 5.33333333 -1.33333333 2.66666667 0 0 Z " fill="#064358" transform="translate(414,676)"/>
<path d="M0 0 C0 3.52032428 -0.70351351 4.4385343 -3 7 C-3.66 7 -4.32 7 -5 7 C-4.67 5.02 -4.34 3.04 -4 1 C-2.68 0.67 -1.36 0.34 0 0 Z " fill="#156272" transform="translate(455,539)"/>
<path d="M0 0 C0.66 0.33 1.32 0.66 2 1 C1.01 1.99 0.02 2.98 -1 4 C-1 1 -1 1 0 0 Z M-3 4 C-2.34 4.33 -1.68 4.66 -1 5 C-2.52206009 7.62901288 -3.84365964 9.84365964 -6 12 C-6 9.35220307 -5.82804069 7.48412207 -5 5 C-4.34 4.67 -3.68 4.34 -3 4 Z " fill="#0F4357" transform="translate(551,470)"/>
<path d="M0 0 C0.66 0.33 1.32 0.66 2 1 C1.67 1.99 1.34 2.98 1 4 C0.34 4 -0.32 4 -1 4 C-1 4.66 -1 5.32 -1 6 C-1.99 6.495 -1.99 6.495 -3 7 C-3.66 7.99 -4.32 8.98 -5 10 C-5.33 9.01 -5.66 8.02 -6 7 C-4.78515625 5.17578125 -4.78515625 5.17578125 -3.0625 3.3125 C-2.49660156 2.68988281 -1.93070312 2.06726563 -1.34765625 1.42578125 C-0.90292969 0.95527344 -0.45820313 0.48476563 0 0 Z " fill="#146F77" transform="translate(504,423)"/>
<path d="M0 0 C2.31 0 4.62 0 7 0 C2.25 4.875 2.25 4.875 0 6 C0 4.02 0 2.04 0 0 Z " fill="#104153" transform="translate(640,361)"/>
<path d="M0 0 C0.66 0.66 1.32 1.32 2 2 C1.34 2 0.68 2 0 2 C-0.103125 2.556875 -0.20625 3.11375 -0.3125 3.6875 C-1.13133577 6.44176578 -2.45853781 8.58727657 -4 11 C-4.33 9.68 -4.66 8.36 -5 7 C-4.34 7 -3.68 7 -3 7 C-2.690625 6.030625 -2.38125 5.06125 -2.0625 4.0625 C-1 1 -1 1 0 0 Z " fill="#0B4357" transform="translate(528,499)"/>
<path d="M0 0 C0.99 0 1.98 0 3 0 C1.95125002 2.62187494 1.35068687 3.79371361 -1.125 5.25 C-1.74375 5.4975 -2.3625 5.745 -3 6 C-3 6.66 -3 7.32 -3 8 C-3.66 8 -4.32 8 -5 8 C-4.67 7.01 -4.34 6.02 -4 5 C-3.34 5 -2.68 5 -2 5 C-1.34 3.35 -0.68 1.7 0 0 Z " fill="#116470" transform="translate(419,529)"/>
<path d="M0 0 C0.66 0 1.32 0 2 0 C1.38722388 2.96175123 0.74627478 4.38058783 -1 7 C-1.66 7 -2.32 7 -3 7 C-1.125 1.125 -1.125 1.125 0 0 Z " fill="#084A5D" transform="translate(482,504)"/>
<path d="M0 0 C0.625 1.8125 0.625 1.8125 1 4 C0.01 5.485 0.01 5.485 -1 7 C-1.66 7 -2.32 7 -3 7 C-3.33 5.68 -3.66 4.36 -4 3 C-2.68 2.01 -1.36 1.02 0 0 Z " fill="#0A495D" transform="translate(498,487)"/>
<path d="M0 0 C0.99 0.33 1.98 0.66 3 1 C2.01 1.33 1.02 1.66 0 2 C0 1.34 0 0.68 0 0 Z M-4 1 C-2.68 1.66 -1.36 2.32 0 3 C-1.98 4.32 -3.96 5.64 -6 7 C-5.34 5.02 -4.68 3.04 -4 1 Z " fill="#10505F" transform="translate(290,436)"/>
<path d="M0 0 C0.66 0.66 1.32 1.32 2 2 C0.71937515 3.7074998 -0.61767557 5.37373596 -2 7 C-2.66 7 -3.32 7 -4 7 C-4 5.68 -4 4.36 -4 3 C-2 1.25 -2 1.25 0 0 Z " fill="#0E465B" transform="translate(465,594)"/>
<path d="M0 0 C0 3.39593478 -0.52165948 4.06619881 -2.5 6.6875 C-2.9640625 7.31011719 -3.428125 7.93273437 -3.90625 8.57421875 C-4.2671875 9.04472656 -4.628125 9.51523437 -5 10 C-5.33 9.01 -5.66 8.02 -6 7 C-4.78515625 5.17578125 -4.78515625 5.17578125 -3.0625 3.3125 C-2.49660156 2.68988281 -1.93070312 2.06726563 -1.34765625 1.42578125 C-0.90292969 0.95527344 -0.45820313 0.48476563 0 0 Z " fill="#031619" transform="translate(509,540)"/>
<path d="M0 0 C1 3 1 3 0.3125 5.125 C-1 7 -1 7 -3.125 7.75 C-4.053125 7.87375 -4.053125 7.87375 -5 8 C-4.34 6.35 -3.68 4.7 -3 3 C-2.34 3 -1.68 3 -1 3 C-0.67 2.01 -0.34 1.02 0 0 Z " fill="#1C6A79" transform="translate(481,502)"/>
<path d="M0 0 C1.98 0 3.96 0 6 0 C4.35830472 2.02054804 2.69088222 4.02043058 1 6 C0.67 6 0.34 6 0 6 C0 4.02 0 2.04 0 0 Z " fill="#188287" transform="translate(573,261)"/>
<path d="M0 0 C0.6875 1.8125 0.6875 1.8125 1 4 C-0.3125 5.75 -0.3125 5.75 -2 7 C-2.66 7 -3.32 7 -4 7 C-2.92598892 4.08482708 -2.22189824 2.22189824 0 0 Z " fill="#166C75" transform="translate(477,454)"/>
<path d="M0 0 C0.99 0.33 1.98 0.66 3 1 C2.54625 1.433125 2.0925 1.86625 1.625 2.3125 C-0.20024334 4.10798342 -0.20024334 4.10798342 -2 7 C-2.33 5.35 -2.66 3.7 -3 2 C-2.01 1.34 -1.02 0.68 0 0 Z " fill="#0F4156" transform="translate(572,442)"/>
<path d="M0 0 C0.66 0.33 1.32 0.66 2 1 C0.35 2.98 -1.3 4.96 -3 7 C-3.99 6.67 -4.98 6.34 -6 6 C-5.38125 5.7525 -4.7625 5.505 -4.125 5.25 C-1.64931313 3.79371361 -1.04874998 2.62187494 0 0 Z " fill="#227785" transform="translate(552,414)"/>
<path d="M0 0 C0 3 0 3 -2 6 C-3.32 5.67 -4.64 5.34 -6 5 C-2.25 1.125 -2.25 1.125 0 0 Z " fill="#105B6C" transform="translate(407,468)"/>
</svg>
